<?xml version="1.0" encoding="UTF-8"?>
<!DOCTYPE svg PUBLIC "-//W3C//DTD SVG 1.1//EN" "http://www.w3.org/Graphics/SVG/1.1/DTD/svg11.dtd">
<!-- Creator: CorelDRAW X8 -->
<svg xmlns="http://www.w3.org/2000/svg" xml:space="preserve" width="4.36332in" height="3.00162in" version="1.1" style="shape-rendering:geometricPrecision; text-rendering:geometricPrecision; image-rendering:optimizeQuality; fill-rule:evenodd; clip-rule:evenodd"
viewBox="0 0 1549 1065"
 xmlns:xlink="http://www.w3.org/1999/xlink">
 <defs>
  <style type="text/css">
   <![CDATA[
    .fil0 {fill:black}
    .fil1 {fill:black;fill-rule:nonzero}
   ]]>
  </style>
 </defs>
 <g id="Layer_x0020_1">
  <metadata id="CorelCorpID_0Corel-Layer"/>
  <g id="_1961142609776">
   <path class="fil0" d="M940 673c-2,15 -3,56 1,67 1,4 3,11 9,11 6,1 13,-6 17,-10 8,-9 15,-21 20,-33l1 -1c1,-1 1,-2 1,-3l1 -1 0 -1 1 -1 0 -1 0 -1 1 -1 0 -1 1 -2 0 -1 1 -1 0 -1 1 -1 0 0 0 -2 1 -1 1 -1c0,0 0,0 0,0l0 0 0 -2 1 -1 0 -1 0 -1 1 -1 0 0 0 -1 1 -1 0 -1 1 -1 0 -1 1 -2 0 -1 0 0 1 -2 0 0 0 -1 0 0c0,0 0,0 0,0 7,-19 12,-29 16,-61l0 -1 0 0 0 -1 0 0 0 -1 0 0 0 -1 0 0 0 -1 0 0 0 -1 0 0 0 0 0 -1 0 0 0 -1 0 0 0 -1 0 0 1 -1 0 -1 0 0 0 -1 0 0 0 -1 0 0 0 -1 0 0 0 -1c2,-24 3,-45 4,-64 0,-19 -3,-31 -10,-35 -4,-2 -5,-6 -2,-11 2,-5 7,-9 13,-13 5,-3 13,-6 21,-7 40,-7 47,41 44,71 -2,20 -6,42 -10,64 -2,17 -4,33 -7,49 -2,15 -3,29 -2,41l0 0 0 0c1,8 4,23 8,30 2,3 7,4 10,3 4,-1 9,-6 11,-9 6,-7 24,-36 27,-44 3,-7 5,-16 7,-25 4,-19 8,-38 12,-57 3,-20 5,-38 6,-56 1,-18 1,-35 1,-49 1,-13 0,-22 -3,-27 -1,-3 2,-5 10,-8 8,-2 17,-3 28,-1 11,1 20,4 29,8 9,5 13,12 12,23 -1,11 -2,21 -5,29 -2,8 -4,17 -6,29 -2,11 -5,25 -7,41 -3,17 -5,40 -7,67 -2,27 -2,45 1,56 0,1 1,7 7,4 6,-3 9,-8 11,-11 7,-11 12,-24 17,-36 0,0 0,-1 0,-1 6,-12 11,-25 15,-38l0 -2 1 -1c0,0 0,0 0,0l0 -2 1 -1c0,0 0,0 0,0l0 -1c0,0 0,0 0,0l0 -1 1 -2c0,0 0,0 0,0l0 0 0 -2 1 0c0,0 0,0 0,0l0 -1 0 -1 8 -45 0 0 0 -1c1,0 1,-1 1,-1l0 0c0,-1 0,-1 0,-2l0 0c0,-1 0,-1 0,-2l0 0c0,0 0,-1 0,-1l1 -1c0,0 0,-1 0,-1l0 -1c0,0 0,0 0,-1l0 0c0,-1 0,-1 0,-2l0 0c0,-1 1,-1 1,-1l0 -1c0,0 0,-1 0,-1l0 -1c0,0 0,-1 0,-1l0 0c0,-1 1,-1 1,-2l0 0c0,-1 0,-1 0,-2l0 0c0,0 0,-1 0,-2l0 0c1,0 1,-1 1,-1l0 -1c0,0 0,-1 0,-1l0 0c0,-1 1,-2 1,-2l0 0 0 0c9,-38 26,-70 50,-95 7,-6 15,-11 24,-16 10,-5 20,-6 31,-5 17,4 29,12 36,23 0,-13 -1,-21 -4,-26 -2,-2 1,-5 9,-7 9,-3 18,-4 29,-2 10,1 20,4 30,10 9,5 13,14 13,27 0,13 -2,25 -4,36 -2,10 -5,21 -8,32 -3,12 -7,25 -10,40 -3,12 -5,27 -8,43 0,2 0,3 0,4 -2,14 -2,46 2,57 1,4 4,10 9,11 6,0 13,-6 17,-10 3,-3 6,-6 8,-10 2,-2 3,-5 5,-8 1,-2 2,-4 3,-6 2,-4 4,-8 5,-11 2,-7 5,-14 11,-17 5,-2 10,-1 15,2 4,2 7,6 10,11 2,5 3,10 2,16 0,4 -4,16 -6,19 -2,7 -7,14 -11,19 -1,1 -1,1 -1,1 -16,18 -41,31 -66,29 -12,0 -24,-4 -34,-8 -12,-5 -20,-13 -25,-23 -10,19 -23,38 -43,46 -14,5 -31,10 -46,6 0,0 -1,0 -1,-1 -13,-7 -24,-17 -32,-29 0,-1 0,-1 -1,-2l0 0c0,0 0,0 0,0l0 0c0,0 0,0 0,0l0 0c0,-1 -1,-1 -1,-2l0 0c0,0 0,0 0,0l0 0c0,0 0,0 0,0l-1 -1c0,0 0,0 0,0l0 0c0,0 0,0 0,0l0 0c0,0 0,0 0,0l0 -1c0,0 0,0 0,0l0 1c0,0 0,0 0,0l-1 0 0 1c0,0 0,0 0,0l0 0 -1 1c0,0 0,0 0,0l0 0c0,0 0,1 0,1l0 0c0,0 0,0 0,0l-1 1c0,0 0,0 0,0l0 0c0,1 0,1 0,1l-1 0 0 1c0,0 0,0 0,0l0 0c0,1 0,1 -1,1l0 0c0,1 0,1 0,1l0 0c0,1 -1,1 -1,1l0 1c0,0 0,0 0,0l-1 1c0,0 0,0 0,1l0 0c0,0 -1,0 -1,1l0 0c0,0 0,0 0,1l0 0c-1,0 -1,0 -1,1l0 0c0,0 0,0 -1,1l0 0c0,0 0,1 0,1l0 0c-1,0 -1,1 -1,1l0 0c0,0 0,1 -1,1l0 0c0,0 0,1 0,1l0 0c-1,0 -1,1 -1,1l0 0c0,0 0,0 0,0l0 0c0,0 -1,1 -1,1l0 0c0,0 0,0 0,0l0 0c0,0 0,1 0,1l0 0c-1,0 -1,1 -1,1 -15,21 -34,34 -60,37 -3,0 -13,0 -17,0l0 0 -15 109c10,-1 26,-2 37,-3 19,-1 39,-2 59,-2 21,0 42,1 63,2 18,0 36,2 53,5 0,0 0,1 1,1 10,4 18,11 19,23 1,9 -1,18 -5,26 -5,8 -11,14 -20,16 -3,0 -5,0 -7,0 -9,-1 -15,-8 -19,-16 -4,-6 -21,-9 -27,-10 -19,-2 -38,-3 -57,-3 -20,0 -40,1 -60,2 -12,1 -27,2 -40,3 -2,10 -4,21 -7,30 -6,17 -13,33 -22,48 -10,17 -21,33 -35,48 -14,15 -31,26 -50,34 -17,6 -35,11 -53,9 -15,-1 -29,-6 -42,-15 -11,-9 -20,-20 -25,-33 -6,-14 -7,-30 -6,-45 2,-21 10,-40 25,-55 15,-14 32,-26 51,-35 18,-9 38,-15 58,-19 16,-2 37,-3 52,-5l16 -124c-14,16 -29,33 -52,33 -16,1 -31,-3 -42,-15l-1 0c0,0 0,0 0,0l0 -1c0,0 0,0 0,0l0 0c0,0 0,0 0,0l-1 0c0,0 0,0 0,0l0 0c0,0 0,0 0,0l0 -1c0,0 0,0 0,0l0 0c0,0 0,0 0,0l-1 0c0,0 0,0 0,0l0 0c0,0 0,0 0,0l0 -1c0,0 0,0 0,0l-1 0c0,0 0,0 0,0l0 -1c0,0 0,0 0,0l0 0c0,0 0,0 0,0l-1 -1c0,0 0,0 0,0l0 0c0,0 0,0 0,0l0 0c0,0 0,0 0,0l-1 -1c0,0 0,0 0,0l0 0c0,0 0,0 0,0l0 0c0,0 0,0 0,0l0 0c0,0 0,0 0,0l-1 -1c0,0 0,0 0,0l0 0c0,0 0,0 0,0l0 -1c0,0 0,0 0,0l0 0c0,0 0,0 0,0l-1 0c0,0 0,0 0,0l0 0c0,0 0,0 0,0l0 -1c0,0 0,0 0,0l0 0c0,0 0,0 0,0l0 0c0,0 0,0 0,0l-1 0c0,0 0,0 0,0l0 -1c0,0 0,0 0,0l0 0c0,0 0,0 0,0l0 0c0,0 0,0 0,0l-1 -1c0,0 0,0 0,0l0 0c0,0 0,0 0,0l0 0c0,0 0,0 0,0l0 -1c0,0 0,0 0,0l-1 0 0 0c0,0 0,0 0,0l0 0c0,0 0,0 0,0l0 -1c0,0 0,0 0,0l-1 0c0,0 0,0 0,0l0 -1c0,0 0,0 0,0l0 0c0,0 0,0 0,0l0 0c0,0 0,0 0,0l-1 -1 0 0c0,0 0,0 0,0l0 0c0,0 0,0 0,0l0 -1c0,0 0,0 0,0l0 0c0,0 0,0 0,0l-1 0 0 0c0,0 0,0 0,0l0 1c0,0 0,0 0,0l-1 0c0,0 0,0 0,0l0 1c0,0 0,0 0,0l0 0c0,0 0,0 0,0l-1 1c0,0 0,0 0,0l0 0c0,0 0,0 0,0l0 1c0,0 0,0 0,0l-1 0c0,0 0,0 0,0l0 1c0,0 0,0 0,0l0 0c0,0 0,0 0,0l-1 1c0,0 0,0 0,0l0 0c0,0 0,0 0,0l0 0c0,1 0,1 0,1l-1 0c0,0 0,0 0,0l0 0c0,0 0,1 0,1l-1 0c0,0 0,0 0,0l0 0c0,1 0,1 0,1l0 0c-1,1 -1,1 -1,1l0 0c0,1 -1,1 -1,1l0 0c0,1 0,1 0,1l-1 0c0,0 0,1 0,1l0 0c-1,0 -1,1 -1,1l0 0c0,0 0,0 -1,1l0 0c0,0 0,0 0,1l-1 0c0,0 0,0 0,1l0 0c-1,0 -1,0 -1,1l0 0c0,0 -1,0 -1,0l0 0c0,1 0,1 -1,1l0 0c0,0 0,0 0,0l0 0c0,1 -1,2 -1,2 -18,20 -40,29 -66,30 0,0 0,0 0,0 -12,-1 -24,-5 -35,-9 -11,-5 -19,-13 -24,-23 -10,19 -24,38 -43,46 -14,6 -32,11 -46,6 -1,0 -1,0 -1,0 -14,-7 -24,-18 -32,-30 -1,-1 -1,-1 -1,-1l0 -1c0,0 0,0 0,0l0 0c0,0 0,0 0,0l0 0c0,0 0,0 0,0l-1 -1c0,0 0,0 0,0l0 0c0,0 0,0 0,0l0 0c0,0 0,0 0,0l0 0c0,0 0,0 0,0l0 0c0,-1 -1,-1 -1,-2l0 0c0,0 0,0 0,0l0 0c0,0 0,0 0,0 0,0 0,0 0,0 0,0 0,0 -1,0l0 0c0,1 -1,2 -1,3l0 0c0,0 0,0 0,0l-1 0c0,0 0,0 0,0 0,1 0,2 -1,3l0 0c0,0 -1,1 -1,2l0 0c0,0 0,0 0,0l0 0c0,0 0,0 0,0l-1 1 0 0c0,0 0,0 0,0l0 1c0,0 0,0 0,0l-1 0c0,0 0,0 0,0l0 1c0,0 0,0 0,0l0 0c0,0 0,0 0,0l0 0c-1,1 -1,1 -1,1l0 1c0,0 0,0 0,0l0 0c0,0 0,0 0,0l-1 0c0,0 0,0 0,0l0 1c0,0 0,0 0,0l0 0c0,0 0,0 0,0l-1 1c0,0 0,0 0,0l0 0c0,0 0,0 0,0l0 1c0,0 0,0 0,0l0 0 -1 0c0,1 0,1 0,1l0 0c0,0 0,0 0,0l-1 1c0,0 0,0 0,0l0 0c0,0 0,0 0,0l0 1c0,0 0,0 -1,0l0 1c0,0 0,0 0,0l0 0c0,0 0,0 0,0l-1 1c0,0 0,0 0,1l-1 0c0,0 0,0 0,0l0 1c0,0 0,0 0,0l-1 0c0,1 0,1 0,1l0 0c0,0 0,0 0,0l-1 1c0,0 0,0 0,0l0 0c0,0 0,1 -1,1 0,0 0,0 0,1l0 0c0,0 0,0 0,0l-1 0c0,0 0,0 0,0l0 0c0,1 0,1 0,1l-1 0 0 1c0,0 0,0 0,0l0 0c0,0 0,0 0,0l-1 1 0 0c0,0 0,0 0,1l-1 0c0,0 0,0 0,0l0 0c0,1 -1,1 -1,1 -15,18 -36,27 -60,29 -19,1 -36,-4 -49,-19 0,0 0,0 0,0l0 0c0,-1 -1,-1 -1,-1l0 0c0,0 0,0 0,-1l0 0c-1,0 -1,0 -1,0 0,0 0,0 0,0 0,-1 0,-1 0,-1l0 0c0,0 -1,-1 -1,-1l0 0c0,0 0,0 0,-1l0 0c0,0 -1,0 -1,0l0 0c0,0 0,0 0,0 0,-1 0,-1 0,-1l0 0c0,0 0,-1 -1,-1l0 0c0,0 0,0 0,-1l0 0c0,0 0,0 -1,0l0 -1c0,0 0,0 0,0l0 0c0,-1 0,-1 0,-1l0 0c-1,0 -1,-1 -1,-1l0 0c0,0 0,0 0,0l0 -1c0,0 0,0 0,0l0 0c0,0 0,0 0,0l-1 -1c0,0 0,0 0,0l0 0c0,0 0,0 0,0l0 -1c0,0 0,0 0,0l0 0c0,0 0,0 0,0l-1 -1c0,0 0,0 0,0l0 0c0,0 0,-1 0,-1l0 0c0,0 0,0 0,0l0 -1c0,0 0,0 0,0l0 0c0,0 0,0 0,0l-1 -1c0,0 0,0 0,0l0 0c0,0 0,0 0,-1l0 0c0,0 0,0 0,0l0 0c-1,1 -1,1 -1,2l-1 0c0,0 0,0 0,0l0 1 0 0c0,1 -1,1 -1,1l0 0c0,1 0,1 -1,1l0 0c0,1 0,1 0,1l0 0c-1,1 -1,1 -1,1l0 0c0,1 0,1 -1,1l0 1c0,0 0,0 0,0l0 0c-1,1 -1,1 -1,1l0 0c0,1 0,1 -1,1l0 1 0 0c0,0 0,0 0,0l-1 1c0,0 0,0 0,0l0 0c0,0 0,0 0,0l0 1c0,0 -1,0 -1,0l0 1c0,0 0,0 -1,0l0 1c0,0 0,0 0,0 0,0 0,0 0,0 -1,1 -1,1 -1,1l0 1 -1 0c0,0 0,0 0,0l0 1c0,0 0,0 -1,0l0 0c0,1 0,1 0,1l-1 1c0,0 0,0 0,0l0 0 0 0c0,1 -1,1 -1,1l0 0c0,0 0,0 0,0l0 0c0,1 0,1 -1,1l0 0 0 1c0,0 0,0 0,0l-1 0c0,1 0,1 0,1l0 0c0,0 0,0 0,0l0 0c0,1 -1,1 -1,1l0 0c0,1 0,1 -1,1l0 0c0,0 0,1 -1,1l0 0c0,0 0,0 0,0l0 0c0,0 0,1 0,1l0 0c0,0 -1,0 -1,0l0 1c0,0 0,0 0,0l0 0c0,0 -1,1 -1,1l0 0c0,0 0,0 0,0l0 0c0,0 0,0 -1,1l0 0 0 0 -1 1c0,0 0,0 0,0l0 0c-1,1 -1,1 -1,1l0 1c0,0 0,0 0,0l-1 0c0,0 0,0 0,0l0 0c0,1 -1,1 -1,1 -18,20 -41,29 -68,28 0,0 0,0 0,0 -20,-1 -40,-6 -49,-26 -7,-16 -10,-35 -10,-54 0,-1 0,-2 0,-3 -1,-7 -1,-16 0,-26l0 0c0,0 0,0 0,-1 0,-6 1,-13 2,-21 3,-21 5,-41 8,-62 2,-21 4,-40 5,-58 2,-17 0,-29 -4,-36 -1,-3 3,-5 12,-8 10,-3 19,-3 29,0 10,2 18,7 25,16 11,14 -1,53 -4,72 -2,12 -4,26 -7,42 -3,15 -6,31 -8,47 -1,16 -3,30 -4,43 1,17 2,22 10,29 4,3 10,3 16,1 8,-3 15,-9 21,-16 8,-8 14,-17 19,-27 0,0 0,0 0,-1 7,-14 13,-29 17,-44l1 -2c0,0 0,0 0,0l1 -3 1 -2 0 -1c0,0 0,0 0,0l0 0c0,0 0,0 0,0l0 -1c0,0 0,0 0,0l1 -1c0,0 0,0 0,0l0 -2 1 -3 1 -2 0 0c0,0 0,0 0,0l0 -1c0,0 0,0 0,0l0 -1c0,0 0,0 0,0l0 -1c0,0 0,0 0,0l1 -2 0 0c3,-11 6,-21 8,-36l0 0 0 -2 0 0 0 -1 0 0 0 0c0,-2 0,-4 0,-6 3,-30 6,-59 10,-87 3,-28 7,-53 11,-74 3,-22 10,-61 10,-67 -17,3 -33,5 -47,7 -14,2 -28,3 -43,4 -3,0 -7,-3 -10,-6 -3,-3 -5,-5 -7,-9 -2,-4 -3,-8 -2,-12 1,-4 4,-6 9,-7 13,-3 30,-6 50,-8 21,-3 39,-5 56,-7 2,-5 3,-14 5,-25 1,-12 2,-23 3,-34 1,-11 2,-20 2,-29 0,-13 -5,-17 4,-21 7,-2 15,-4 25,-4 10,0 19,3 27,9 8,6 11,17 10,33 0,1 0,4 -1,11 0,6 -1,12 -3,19 -1,7 -2,14 -3,21 -1,7 -1,10 -1,11l187 -26c8,-1 14,0 19,3 5,3 8,7 9,12 2,4 1,8 -3,13 -3,5 -8,8 -16,9l-203 29c-2,7 -10,49 -14,73 -5,25 -9,52 -14,82 -4,27 -8,54 -12,80 0,1 0,1 0,2 -1,29 -2,38 -2,67 0,15 1,31 4,46 1,5 4,17 11,18 0,0 0,0 1,0 5,1 9,-3 12,-7 6,-7 11,-14 16,-22 5,-9 9,-19 12,-28 3,-9 6,-17 9,-25 0,0 0,0 0,0l0 -2 1 -2c0,0 0,0 0,0l0 -1c0,0 0,0 0,0l1 -2 0 -1 1 -2 0 -1 1 -2c0,0 0,0 0,0l0 -1c3,-24 6,-44 9,-59 0,-1 0,-1 0,-2l0 0 0 0c0,0 0,-1 0,-1l0 -1c0,0 1,-1 1,-1l0 0c0,-1 0,-1 0,-2l0 0c0,-1 0,-1 0,-2l0 0c1,-1 1,-1 1,-2l0 0c0,0 0,-1 0,-1l0 -1c0,0 0,-1 1,-1l0 0c0,-1 0,-1 0,-2l0 0c0,-1 0,-1 0,-2 9,-38 26,-70 51,-94 7,-7 15,-12 24,-17 9,-4 19,-6 30,-5 18,4 30,12 37,23 0,-12 -2,-21 -4,-26 -3,-2 0,-5 9,-7 8,-3 18,-3 28,-2 11,1 21,4 30,10 10,6 14,14 14,27 -1,13 -2,25 -4,36 -3,10 -5,21 -8,33 -4,11 -7,24 -10,40 -3,10 -5,22 -7,36zm-418 -139c24,0 43,-19 43,-43 0,-24 -19,-44 -43,-44 -23,0 -42,20 -42,44 0,24 19,43 42,43zm-390 431c-7,13 -26,21 -40,14 -9,-4 -28,-16 -35,-29 -8,-14 -1,-26 19,-47 16,-20 29,-51 37,-83 9,-33 12,-70 18,-107 7,-37 13,-74 18,-110 4,-36 5,-65 3,-86 0,-5 -1,-11 -3,-19 -1,-7 -2,-12 -3,-15 0,-1 3,-3 11,-5 7,-2 15,-2 24,0 9,2 17,8 24,18 7,10 10,27 9,50 0,29 -4,64 -11,104 -6,35 -9,47 -14,76l0 0c0,12 15,27 26,30 16,4 30,1 44,-6 16,-9 30,-21 42,-35 19,-22 32,-46 46,-71 11,-20 16,-38 17,-61 2,-41 4,-74 -8,-116 -7,-26 -20,-49 -41,-66 -23,-18 -54,-18 -81,-11 -19,4 -36,12 -51,24 -18,15 -39,39 -55,58 -20,23 -32,47 -43,75 -6,16 -11,33 -13,49 -1,12 -6,23 -18,26 -9,3 -18,3 -27,-1 -9,-4 -16,-11 -22,-20 -6,-10 -6,-22 -2,-34 6,-18 15,-36 24,-52 7,-13 16,-26 24,-38 8,-11 17,-23 26,-33 27,-27 63,-59 96,-76 35,-19 80,-31 120,-24 19,3 37,10 54,19 17,9 32,22 45,36 13,14 23,31 30,49 10,25 16,51 16,77 0,27 1,53 -5,79 -8,38 -26,68 -50,98 -15,20 -35,39 -54,56 -18,16 -40,28 -63,36 -15,5 -31,6 -47,6 -13,-1 -25,-4 -36,-11 -2,-1 -3,-2 -5,-4 -8,43 -29,118 -35,147 -4,19 -6,20 -11,33zm948 -366l2 0 -2 0zm-195 -40c-12,-1 -22,2 -32,9 -11,7 -20,18 -26,30 -9,15 -14,32 -18,49 -4,20 -6,40 -5,60 0,13 2,27 5,39 2,6 6,14 11,17 5,3 12,-2 15,-4 11,-9 21,-26 27,-37 1,-2 2,-5 3,-7 2,-5 3,-9 5,-14 4,-12 7,-24 10,-37 4,-15 7,-30 9,-45 2,-15 3,-30 3,-45 0,-4 -1,-12 -4,-14 -1,-1 -2,-1 -3,-1zm447 -2c-5,20 -6,40 -6,60l0 0c1,13 2,27 6,39 2,6 5,14 11,17 5,2 11,-2 15,-5 10,-8 20,-25 27,-36 1,-3 1,-5 2,-7 2,-4 3,-8 4,-12 0,0 1,-1 1,-2 4,-12 8,-25 11,-37 4,-20 9,-40 10,-62 1,-10 2,-20 1,-26 0,-8 -1,-14 -4,-16 -3,-3 -24,-4 -47,19 -8,7 -11,15 -15,22 -7,14 -11,26 -16,46zm-221 345c-10,2 -21,4 -31,6 -16,3 -31,8 -46,14 -14,6 -27,15 -37,25 -9,9 -14,19 -13,32 2,14 7,26 20,33 12,7 25,6 37,0 1,0 1,0 2,0 0,-1 2,-1 3,-2 2,-1 4,-2 5,-3 3,-2 5,-3 7,-5 18,-14 31,-36 40,-57 0,0 0,0 0,0 4,-8 7,-15 9,-23 1,-7 3,-13 4,-20z"/>
   <path class="fil1" d="M375 302l2 -4c3,-5 5,-8 5,-11 0,-3 -2,-5 -5,-7 -3,-2 -6,-2 -8,-1 -3,0 -5,3 -8,8l-3 4 17 11zm26 16l2 -3c2,-3 4,-6 4,-8 1,-2 1,-3 1,-5 0,-1 0,-3 -1,-4 -1,-2 -2,-3 -4,-4 -2,-1 -3,-2 -5,-2 -2,0 -4,0 -6,1 -1,1 -2,2 -3,3 -1,1 -2,2 -3,4l-2 3 -2 3 19 12zm2 15l-59 -38 10 -15c2,-4 5,-7 6,-9 2,-1 4,-3 6,-3 2,-1 5,-2 8,-1 3,0 5,1 8,3 3,2 5,4 6,7 2,3 2,6 1,9 2,-3 6,-5 10,-5 3,0 7,1 11,3 3,2 5,4 6,6 2,2 3,4 3,7 1,3 1,5 0,8 -1,3 -3,7 -7,13l-9 15zm18 -76l12 -15 -17 -4c-1,0 -2,-1 -3,-1 -1,-1 -3,-1 -4,-2 1,1 1,3 2,4 1,1 2,2 2,3l8 15zm41 -7l-19 -5 -17 22 9 17 -7 9 -36 -71 77 18 -7 10zm-18 -67l43 41 -8 8 -43 -41 -13 13 -7 -6 33 -35 7 7 -12 13zm63 22l-46 -52 9 -7 45 52 -8 7zm23 -33l8 -6c4,-3 7,-5 9,-7 2,-2 3,-5 3,-7 1,-3 1,-7 0,-10 0,-4 -2,-7 -5,-11 -2,-4 -5,-6 -8,-8 -3,-2 -6,-3 -10,-4 -2,0 -5,0 -8,2 -2,1 -6,3 -11,6l-3 2 -3 3 28 40zm-3 15l-40 -57 12 -9c8,-5 14,-9 18,-11 4,-1 8,-2 12,-2 5,1 9,2 14,5 4,2 8,6 12,11 4,5 6,10 7,15 1,6 1,11 -1,15 -1,4 -3,7 -5,11 -3,3 -7,6 -14,11l-3 2 -12 9zm96 -100c-2,-3 -4,-6 -6,-8 -3,-2 -6,-4 -9,-5 -3,-1 -7,-1 -10,-1 -3,0 -7,1 -10,2 -3,2 -5,4 -7,7 -3,2 -4,5 -5,8 -1,4 -2,7 -1,10 0,4 1,7 3,10 1,3 3,6 6,8 2,2 5,4 9,5 3,1 6,2 10,1 3,0 6,-1 9,-2 3,-2 6,-4 8,-6 2,-3 4,-6 5,-9 1,-3 1,-7 1,-10 -1,-4 -2,-7 -3,-10zm10 -5c3,4 4,9 4,13 1,5 0,10 -2,15 -1,4 -4,9 -7,12 -3,4 -7,7 -11,9 -5,2 -9,4 -14,4 -5,1 -10,0 -14,-1 -5,-2 -9,-4 -13,-7 -4,-3 -6,-7 -9,-11 -2,-5 -3,-9 -4,-14 0,-5 0,-10 2,-14 2,-5 4,-9 7,-13 3,-4 7,-7 12,-9 4,-2 9,-3 14,-4 4,0 9,0 14,2 5,1 9,3 12,7 4,3 7,6 9,11zm20 15l7 -7c1,2 4,4 6,5 3,0 6,0 10,-1 3,-2 5,-3 6,-6 1,-2 1,-5 0,-8 -2,-4 -6,-6 -14,-6 -1,0 -1,-1 -2,-1 -8,0 -14,-1 -18,-3 -3,-2 -6,-5 -8,-9 -2,-6 -1,-11 1,-15 2,-5 6,-8 12,-11 5,-2 9,-2 13,-2 4,1 7,3 10,6l-7 7c-2,-1 -4,-2 -6,-3 -2,0 -4,0 -6,1 -2,1 -4,3 -6,5 -1,2 -1,4 0,7 2,4 7,6 16,6 0,0 1,0 1,0 8,1 13,2 17,4 3,2 6,5 7,9 3,6 3,12 0,17 -2,5 -7,9 -13,12 -6,2 -11,2 -15,1 -5,-1 -8,-4 -11,-8zm102 -27l9 -2c6,-1 9,-2 12,-3 2,-1 4,-3 6,-5 2,-2 4,-6 4,-9 1,-4 1,-8 0,-12 -1,-4 -2,-8 -4,-11 -2,-3 -4,-6 -7,-7 -2,-2 -5,-2 -8,-2 -2,-1 -7,0 -12,1l-5 0 -4 1 9 49zm-9 12l-12 -69 15 -2c9,-2 16,-3 20,-3 5,1 8,2 12,3 4,3 8,6 11,10 3,5 5,10 6,16 1,6 1,12 0,17 -2,5 -4,9 -7,13 -3,3 -6,5 -10,7 -3,1 -9,3 -17,4l-3 1 -15 3zm71 -12l-2 -69 39 -1 0 10 -27 0 0 18 28 -1 0 10 -28 1 1 22 27 -1 1 10 -39 1zm103 -38l3 0c6,1 10,1 13,0 2,-1 3,-3 4,-7 0,-4 -1,-6 -3,-8 -2,-2 -6,-3 -12,-4l-2 0 -3 19zm-2 9l-4 31 -10 -1 9 -69 17 2c5,0 8,1 11,2 2,1 4,2 5,4 2,1 4,4 5,7 1,3 1,6 0,9 0,3 -1,6 -3,9 -1,2 -3,4 -6,6 -1,1 -4,1 -6,1 -3,1 -6,0 -11,0l-2 0 -5 -1zm53 -32l10 3 -9 41c-1,6 -1,11 1,15 2,3 6,6 12,7 5,2 10,1 13,-1 4,-3 6,-7 8,-13l9 -41 11 2 -10 42c-2,10 -6,16 -11,19 -6,4 -13,4 -23,2 -9,-2 -15,-6 -19,-11 -4,-6 -4,-13 -2,-22l10 -43zm80 53l2 0c5,2 9,3 11,3 3,-1 5,-3 6,-6 1,-4 1,-7 0,-9 -2,-2 -5,-4 -10,-6l-2 -1 -7 19zm-4 7l-12 29 -9 -4 25 -64 15 6c4,1 7,3 9,4 2,2 4,4 5,6 2,2 2,5 3,7 0,3 -1,6 -2,9 -2,5 -5,9 -9,11 -3,2 -8,2 -13,1l11 38 -12 -5 -10 -37 -1 -1zm55 28l17 8 1 -17c0,-1 0,-2 0,-4 1,-1 1,-3 1,-4 -1,1 -2,2 -3,3 -1,1 -2,2 -3,3l-13 11zm15 38l1 -19 -24 -13 -16 12 -10 -5 63 -49 -3 80 -11 -6zm46 29l40 -57 32 22 -6 8 -22 -16 -10 14 22 16 -6 8 -22 -16 -19 27 -9 -6zm76 9l2 1c4,4 8,7 10,7 2,0 5,-1 7,-3 3,-3 4,-6 3,-8 0,-3 -2,-6 -6,-10l-2 -2 -14 15zm-6 6l-22 22 -7 -7 48 -50 11 10c3,4 6,6 7,9 2,2 3,4 3,6 0,3 0,6 -1,8 -1,3 -3,6 -5,8 -4,4 -8,6 -12,7 -4,0 -8,-1 -12,-5l-5 40 -9 -9 5 -38 -1 -1zm63 7l7 8 -32 28c-5,4 -7,8 -8,12 0,4 1,9 5,13 4,4 8,7 12,7 5,0 9,-2 14,-6l32 -28 7 9 -33 28c-7,6 -14,9 -20,8 -7,0 -13,-4 -20,-11 -6,-7 -9,-14 -8,-21 0,-7 4,-13 11,-19l33 -28zm55 85l-49 34 -6 -9 49 -34 -11 -16 8 -5 28 39 -8 6 -11 -15zm-7 50l10 17 10 -14c1,-1 1,-2 2,-3 1,-1 2,-2 3,-3 -1,0 -3,1 -4,1 -1,0 -2,0 -4,1l-17 1zm-8 41l12 -16 -14 -24 -20 2 -6 -10 80 -7 -46 65 -6 -10z"/>
  </g>
 </g>
</svg>
